<?xml version="1.0" encoding="utf-8"?>
<!-- Generator: Adobe Illustrator 25.0.1, SVG Export Plug-In . SVG Version: 6.00 Build 0)  -->
<svg version="1.1" id="Layer_1" xmlns="http://www.w3.org/2000/svg" xmlns:xlink="http://www.w3.org/1999/xlink" x="0px" y="0px"
	 viewBox="0 0 20 20" style="enable-background:new 0 0 20 20;" xml:space="preserve">
<style type="text/css">
	.st0{fill:url(#SVGID_1_);}
</style>
<g>
	
		<radialGradient id="SVGID_1_" cx="-23.3668" cy="28.5703" r="106.208" gradientTransform="matrix(1 0 0 -1 0 22)" gradientUnits="userSpaceOnUse">
		<stop  offset="0" style="stop-color:#EE358C"/>
		<stop  offset="1" style="stop-color:#F89F71"/>
	</radialGradient>
	<path class="st0" d="M15.85,11.68c0.48-0.92,0.72-2.03,0.72-3.34c0-1.04-0.17-1.97-0.49-2.77c-0.33-0.8-0.78-1.48-1.36-2.02
		C14.15,3,13.48,2.59,12.71,2.31s-1.6-0.42-2.5-0.42c-0.9,0-1.73,0.14-2.5,0.42C6.94,2.59,6.27,3,5.7,3.55
		C5.13,4.09,4.68,4.76,4.35,5.56c-0.33,0.8-0.49,1.73-0.49,2.77c0,1.03,0.16,1.95,0.48,2.75c0.32,0.8,0.76,1.48,1.32,2.03
		c0.56,0.55,1.23,0.97,2.01,1.25c0.78,0.29,1.62,0.43,2.53,0.43h0.16c0.3,0.5,0.59,0.95,0.87,1.29c0.36,0.47,0.71,0.84,1.05,1.1
		c0.33,0.27,0.67,0.45,1,0.55c0.33,0.1,0.68,0.15,1.05,0.15c0.64,0,1.15-0.19,1.55-0.57c0.39-0.38,0.63-0.87,0.71-1.48
		c-0.49-0.38-0.97-0.8-1.45-1.26c-0.34-0.33-0.63-0.66-0.93-1C14.86,13.08,15.43,12.47,15.85,11.68z M7.75,8.33
		c0-1.1,0.23-1.92,0.68-2.45c0.45-0.54,1.05-0.8,1.8-0.8c0.76,0,1.36,0.27,1.8,0.82c0.44,0.54,0.66,1.36,0.66,2.44
		c0,1.1-0.22,1.92-0.67,2.46c-0.45,0.54-1.05,0.82-1.81,0.82c-0.75,0-1.34-0.27-1.79-0.82C7.97,10.25,7.75,9.43,7.75,8.33z"/>
</g>
</svg>
