<?xml version="1.0" encoding="utf-8"?>
<!-- Generator: Adobe Illustrator 25.0.1, SVG Export Plug-In . SVG Version: 6.00 Build 0)  -->
<svg version="1.1" id="Layer_1" xmlns="http://www.w3.org/2000/svg" xmlns:xlink="http://www.w3.org/1999/xlink" x="0px" y="0px"
	 viewBox="0 0 293.06 84.59" style="enable-background:new 0 0 293.06 84.59;" xml:space="preserve">
<style type="text/css">
	.st0{fill:url(#SVGID_1_);}
	.st1{fill:url(#SVGID_2_);}
	.st2{fill:url(#SVGID_3_);}
	.st3{fill:url(#SVGID_4_);}
	.st4{fill:url(#SVGID_5_);}
</style>
<g>
	<radialGradient id="SVGID_1_" cx="-131.3073" cy="-39.0849" r="525.1323" gradientUnits="userSpaceOnUse">
		<stop  offset="0" style="stop-color:#ED328C"/>
		<stop  offset="1" style="stop-color:#F89F71"/>
	</radialGradient>
	<path class="st0" d="M62.59,51.14c2.38-4.53,3.58-10.04,3.58-16.53c0-5.16-0.82-9.74-2.43-13.7c-1.62-3.98-3.86-7.3-6.71-9.98
		c-2.84-2.68-6.17-4.72-9.98-6.11c-3.81-1.39-7.93-2.08-12.36-2.08c-4.44,0-8.56,0.69-12.36,2.08c-3.81,1.39-7.11,3.43-9.92,6.11
		c-2.82,2.68-5.03,6-6.66,9.98c-1.62,3.97-2.43,8.54-2.43,13.7c0,5.1,0.8,9.63,2.38,13.6c1.59,3.97,3.77,7.31,6.55,10.03
		c2.78,2.71,6.09,4.78,9.93,6.2c3.84,1.42,8.01,2.13,12.51,2.13h0.78c1.5,2.46,2.94,4.68,4.28,6.4c1.79,2.32,3.52,4.15,5.17,5.45
		c1.65,1.32,3.29,2.21,4.95,2.7c1.65,0.49,3.37,0.73,5.17,0.73c3.15,0,5.69-0.93,7.64-2.81c1.95-1.88,3.11-4.31,3.49-7.31
		c-2.4-1.88-4.8-3.95-7.19-6.24c-1.69-1.61-3.13-3.28-4.6-4.95C57.72,58.08,60.54,55.04,62.59,51.14z M22.54,34.61
		c0-5.43,1.12-9.47,3.36-12.12c2.23-2.66,5.2-3.98,8.9-3.98c3.76,0,6.72,1.34,8.89,4.03c2.18,2.68,3.27,6.7,3.27,12.07
		c0,5.42-1.11,9.48-3.31,12.16c-2.21,2.69-5.19,4.03-8.95,4.03c-3.7,0-6.65-1.34-8.85-4.03C23.64,44.09,22.54,40.03,22.54,34.61z"/>
	<radialGradient id="SVGID_2_" cx="-131.3073" cy="-39.0849" r="525.1323" gradientUnits="userSpaceOnUse">
		<stop  offset="0" style="stop-color:#ED328C"/>
		<stop  offset="1" style="stop-color:#F89F71"/>
	</radialGradient>
	<path class="st1" d="M122,8.76c-0.9-0.68-2-1.13-3.31-1.35c-1.32-0.23-2.8-0.34-4.45-0.34c-1.72,0-3.39,0.11-5,0.34
		c-1.62,0.22-2.8,0.45-3.55,0.67v39.36c-0.59,0.3-1.44,0.6-2.53,0.9c-1.09,0.3-2.49,0.46-4.22,0.46c-2.85,0-5.02-0.66-6.53-1.97
		c-1.5-1.32-2.24-3.51-2.24-6.58V16.07c0-1.88-0.25-3.4-0.73-4.56c-0.49-1.16-1.18-2.08-2.09-2.75c-0.9-0.68-2-1.13-3.31-1.35
		c-1.31-0.23-2.79-0.34-4.44-0.34c-1.73,0-3.4,0.11-5.01,0.34C73,7.64,71.82,7.86,71.07,8.08v32.17c0,4.2,0.67,7.78,2.02,10.73
		c1.35,2.97,3.26,5.38,5.74,7.26c2.47,1.88,5.41,3.26,8.82,4.15c3.41,0.91,7.14,1.35,11.19,1.35c4.27,0,8.23-0.43,11.86-1.29
		c3.63-0.87,6.76-2.12,9.39-3.77c3.15-1.88,4.72-4.69,4.72-8.44V16.07c0-1.88-0.24-3.4-0.72-4.56C123.6,10.35,122.9,9.44,122,8.76z"
		/>
	<radialGradient id="SVGID_3_" cx="-131.3073" cy="-39.0849" r="525.1323" gradientUnits="userSpaceOnUse">
		<stop  offset="0" style="stop-color:#ED328C"/>
		<stop  offset="1" style="stop-color:#F89F71"/>
	</radialGradient>
	<path class="st2" d="M177.11,12.36c-2.36-2.1-5.18-3.74-8.44-4.94s-6.88-1.8-10.85-1.8c-3.52,0-6.97,0.54-10.34,1.63
		c-3.38,1.09-6.38,2.77-9,5.06c-2.63,2.29-4.75,5.22-6.36,8.78s-2.42,7.82-2.42,12.76c0,5.02,0.81,9.41,2.42,13.16
		c1.61,3.75,3.83,6.86,6.63,9.33c2.82,2.47,6.11,4.33,9.9,5.56c3.78,1.24,7.89,1.86,12.31,1.86c2.63,0,5.44-0.23,8.44-0.68
		c2.99-0.45,5.69-1.31,8.1-2.58c3.15-1.66,4.72-4.16,4.72-7.54c0-1.5-0.41-2.92-1.24-4.27c-0.83-1.35-1.84-2.4-3.04-3.15
		c-1.73,1.05-3.95,1.97-6.69,2.75c-2.75,0.79-5.65,1.18-8.72,1.18c-3.29,0-6.22-0.61-8.77-1.85c-2.55-1.24-4.24-3.09-5.06-5.57
		l27.78-4.15c2.54-0.38,4.54-1.24,5.96-2.59c1.43-1.35,2.14-3.29,2.14-5.85c0-3.45-0.66-6.63-1.97-9.55
		C181.31,16.97,179.48,14.46,177.11,12.36z M147.36,29.45c0.07-1.2,0.32-2.38,0.73-3.54c0.41-1.16,1.03-2.21,1.86-3.15
		c0.82-0.93,1.89-1.7,3.2-2.31c1.31-0.59,2.87-0.9,4.67-0.9c2.77,0,4.88,0.75,6.3,2.24c1.43,1.5,2.25,3,2.48,4.5L147.36,29.45z"/>
	<radialGradient id="SVGID_4_" cx="-131.3073" cy="-39.0849" r="525.1323" gradientUnits="userSpaceOnUse">
		<stop  offset="0" style="stop-color:#ED328C"/>
		<stop  offset="1" style="stop-color:#F89F71"/>
	</radialGradient>
	<path class="st3" d="M216.14,5.72c-2.17,0-4.35,0.17-6.52,0.51c-2.18,0.33-4.27,0.81-6.3,1.4c-2.03,0.6-3.93,1.29-5.68,2.08
		s-3.24,1.67-4.44,2.64c-1.2,0.98-2.12,2.09-2.75,3.32c-0.64,1.24-0.96,2.72-0.96,4.44v33.74c0,1.87,0.25,3.39,0.73,4.55
		c0.49,1.16,1.18,2.09,2.08,2.75c0.91,0.68,2,1.13,3.32,1.35c1.31,0.22,2.79,0.34,4.44,0.34c1.73,0,3.4-0.12,5.01-0.34
		c1.61-0.23,2.79-0.45,3.54-0.68V23.49c0.98-0.45,2.16-0.84,3.54-1.18c1.39-0.34,2.87-0.66,4.45-0.96c1.57-0.29,3.18-0.52,4.83-0.67
		c1.65-0.16,3.26-0.23,4.83-0.23c0.46-0.82,0.82-1.74,1.13-2.75c0.3-1.02,0.45-2.04,0.45-3.09c0-3.15-1.04-5.42-3.15-6.8
		C222.59,6.42,219.74,5.72,216.14,5.72z"/>
	<radialGradient id="SVGID_5_" cx="-131.3073" cy="-39.0849" r="525.1323" gradientUnits="userSpaceOnUse">
		<stop  offset="0" style="stop-color:#ED328C"/>
		<stop  offset="1" style="stop-color:#F89F71"/>
	</radialGradient>
	<path class="st4" d="M287.15,7.86c-1.72-1.13-3.9-1.69-6.52-1.69c-3.23,0-6.19,0.71-8.89,2.14c-0.52,3.07-1.14,6.2-1.86,9.39
		s-1.48,6.37-2.31,9.55c-0.82,3.19-1.67,6.29-2.53,9.28c-0.86,3-1.75,5.77-2.64,8.32h-0.45l-8.89-30.92
		c-0.82-2.99-2.1-5.04-3.83-6.12c-1.72-1.09-3.9-1.64-6.52-1.64c-2.1,0-4.04,0.39-5.79,1.18c-1.77,0.79-3.17,1.71-4.22,2.75
		c1.2,5.02,2.34,9.47,3.43,13.33c1.08,3.86,2.13,7.28,3.15,10.29c1.01,3,1.99,5.66,2.92,7.98c0.94,2.32,1.82,4.43,2.64,6.31
		c1.72,3.82,3.32,6.42,4.78,7.82c1.46,1.38,2.83,2.26,4.11,2.64c-1.95,2.41-4.13,4.74-6.53,7.03c-2.4,2.29-4.8,4.37-7.19,6.24
		c0.38,3,1.54,5.44,3.49,7.31c1.95,1.88,4.49,2.81,7.64,2.81c1.8,0,3.52-0.24,5.17-0.73c1.66-0.49,3.3-1.38,4.95-2.7
		c1.65-1.31,3.38-3.13,5.17-5.45c1.8-2.32,3.75-5.32,5.85-9c1.28-2.17,2.59-4.62,3.94-7.36c1.35-2.74,2.66-5.65,3.94-8.72
		c1.27-3.07,2.49-6.2,3.65-9.39c1.16-3.18,2.17-6.28,3.04-9.28c0.86-2.99,1.56-5.82,2.08-8.48s0.79-5.01,0.79-7.03
		C289.74,10.94,288.88,8.99,287.15,7.86z"/>
</g>
</svg>
