<?xml version="1.0" encoding="utf-8"?>
<!-- Generator: Adobe Illustrator 25.0.1, SVG Export Plug-In . SVG Version: 6.00 Build 0)  -->
<svg version="1.1" id="Layer_1" xmlns="http://www.w3.org/2000/svg" xmlns:xlink="http://www.w3.org/1999/xlink" x="0px" y="0px"
	 viewBox="0 0 451.4 181.2" style="enable-background:new 0 0 451.4 181.2;" xml:space="preserve">
<style type="text/css">
	.st0{fill:#FFFFFF;}
</style>
<g>
	<path class="st0" d="M78.24,16.81c3.14-0.99,6.74-1.82,10.79-2.48c4.05-0.66,7.73-0.99,11.04-0.99c3.8,0,7.48,0.37,11.04,1.12
		c3.55,0.74,6.74,1.98,9.55,3.72c2.81,1.74,5.04,4.09,6.7,7.07c1.65,2.98,2.48,6.7,2.48,11.16v65.98h22.08
		c0.99,1.82,1.98,4.22,2.98,7.19s1.49,6.12,1.49,9.42c0,6.29-1.41,10.75-4.22,13.39c-2.81,2.65-6.37,3.97-10.67,3.97h-11.66v29.27
		c-1.82,0.33-4.55,0.78-8.19,1.36c-3.64,0.58-7.11,0.87-10.42,0.87c-3.64,0-6.86-0.17-9.67-0.5c-2.81-0.33-5.17-1.12-7.07-2.36
		c-1.9-1.24-3.35-3.02-4.34-5.33c-0.99-2.31-1.49-5.46-1.49-9.43v-13.89H26.4c-3.81-1.98-7.07-4.92-9.8-8.81
		c-2.73-3.88-4.09-8.64-4.09-14.26c0-3.14,0.41-6.61,1.24-10.42c0.83-3.8,2.23-7.11,4.22-9.92L78.24,16.81z M90.89,55.75h-0.74
		l-32.99,46.63h33.73V55.75z"/>
	<path class="st0" d="M291.8,90.48c0,12.74-1.66,24.06-4.96,33.98c-3.31,9.92-7.9,18.23-13.77,24.93
		c-5.87,6.7-12.9,11.78-21.08,15.25c-8.19,3.47-17.08,5.21-26.66,5.21c-9.76,0-18.73-1.74-26.91-5.21
		c-8.19-3.47-15.22-8.56-21.08-15.25c-5.87-6.7-10.42-15.01-13.64-24.93s-4.84-21.25-4.84-33.98c0-12.73,1.61-24.02,4.84-33.86
		c3.22-9.84,7.77-18.11,13.64-24.8c5.87-6.7,12.9-11.78,21.08-15.25c8.19-3.47,17.15-5.21,26.91-5.21c9.59,0,18.48,1.74,26.66,5.21
		c8.19,3.47,15.21,8.56,21.08,15.25c5.87,6.7,10.46,14.97,13.77,24.8C290.15,66.46,291.8,77.74,291.8,90.48z M249.39,90.48
		c0-14.55-2.11-25.8-6.33-33.73c-4.22-7.94-10.21-11.91-17.98-11.91c-7.77,0-13.69,3.97-17.73,11.91
		c-4.05,7.94-6.08,19.18-6.08,33.73c0,14.55,2.02,25.84,6.08,33.86c4.05,8.02,9.96,12.03,17.73,12.03c7.77,0,13.77-4.01,17.98-12.03
		C247.28,116.31,249.39,105.03,249.39,90.48z"/>
	<path class="st0" d="M360.75,16.81c3.14-0.99,6.74-1.82,10.79-2.48c4.05-0.66,7.73-0.99,11.04-0.99c3.8,0,7.48,0.37,11.04,1.12
		c3.55,0.74,6.74,1.98,9.55,3.72c2.81,1.74,5.04,4.09,6.7,7.07c1.65,2.98,2.48,6.7,2.48,11.16v65.98h22.08
		c0.99,1.82,1.98,4.22,2.98,7.19s1.49,6.12,1.49,9.42c0,6.29-1.41,10.75-4.22,13.39c-2.81,2.65-6.37,3.97-10.67,3.97h-11.66v29.27
		c-1.82,0.33-4.55,0.78-8.19,1.36c-3.64,0.58-7.11,0.87-10.42,0.87c-3.64,0-6.86-0.17-9.67-0.5c-2.81-0.33-5.17-1.12-7.07-2.36
		c-1.9-1.24-3.35-3.02-4.34-5.33c-0.99-2.31-1.49-5.46-1.49-9.43v-13.89h-62.26c-3.81-1.98-7.07-4.92-9.8-8.81
		c-2.73-3.88-4.09-8.64-4.09-14.26c0-3.14,0.41-6.61,1.24-10.42c0.83-3.8,2.23-7.11,4.22-9.92L360.75,16.81z M373.4,55.75h-0.74
		l-32.99,46.63h33.73V55.75z"/>
</g>
</svg>
